<svg xmlns="http://www.w3.org/2000/svg" width="156.873" height="37.999"><defs><clipPath id="a"><path fill="#fff" d="M0 0h156.873v37.999H0z" data-name="사각형 93"/></clipPath></defs><g data-name="그룹 23"><path fill="#fff" d="M37.867 0 21.89 14.365 27.118 0H15.733L4.742 30.244h11.333l5.228-14.316 5.521 14.316h11.385l-6.352-15.293L49.202 0Z" data-name="패스 1"/><g data-name="그룹 22"><g fill="#fff" clip-path="url(#a)" data-name="그룹 21"><path d="M82.987 7.755H60.362l-1.41 3.877H76.18a3.558 3.558 0 0 1 3.053 1.587 3.489 3.489 0 0 1 .457 3.414l-3.174 8.756a7.124 7.124 0 0 1-2.721 3.556 7.447 7.447 0 0 1-4.3 1.3h-28.63l2.662-7.367h22.624L67.561 19H50.334a3.557 3.557 0 0 1-3.053-1.587 3.487 3.487 0 0 1-.457-3.415l3.171-8.709a7.254 7.254 0 0 1 2.72-3.579A7.35 7.35 0 0 1 57.019.389h28.63Z" data-name="패스 2"/><path d="M78.356 30.244 89.356 0h28.492a3.576 3.576 0 0 1 3.093 1.62 3.6 3.6 0 0 1 .442 3.486l-3.24 8.886A7.48 7.48 0 0 1 111.02 19h-.8l5.719 11.245h-11.247L98.972 19h-5.186l-4.071 11.245ZM97.72 7.755l-1.709 4.653h11.823l1.709-4.653Z" data-name="패스 3"/><path d="M124.513 25.589a12.757 12.757 0 0 1-.9 1.941h22.181a26 26 0 0 0 3.711-6.814L150.13 19h-23.219Z" data-name="패스 4"/><path d="M156.873 0h-22.891l-.258.709-2.564 7.046h22.891Z" data-name="패스 5"/><path d="M112.137 34.121H2.69L0 37.999h124.776a26.646 26.646 0 0 0 20.23-9.306h-22.2a13.217 13.217 0 0 1-10.671 5.428" data-name="패스 6"/><path d="m130.496 8.918-3.105 8.527h23.221l3.1-8.531Z" data-name="패스 7"/></g></g></g></svg>
